<svg width="32" height="32" viewBox="0 0 32 32" fill="none" xmlns="http://www.w3.org/2000/svg">
<rect width="32" height="32" rx="4.25" fill="#25AF04"/>
<path d="M16.2743 20.174L15.6283 29.49C15.6056 29.6713 15.5829 29.8073 15.5603 29.898C15.5603 29.966 15.4583 30 15.2543 30H13.3843C12.1149 30 11.2083 29.7507 10.6643 29.252C10.1203 28.7533 9.84826 28.0393 9.84826 27.11C9.84826 26.6567 9.88226 25.886 9.95026 24.798C10.0183 23.6873 10.1089 22.4293 10.2223 21.024C10.3356 19.6187 10.4489 18.134 10.5623 16.57C10.6756 15.006 10.7889 13.5327 10.9023 12.15C11.0156 10.7673 11.1063 9.55467 11.1743 8.512C11.2423 7.46933 11.2763 6.75533 11.2763 6.37C11.2763 6.03 11.4576 5.86 11.8203 5.86H23.7883C23.9243 5.86 24.0489 5.894 24.1623 5.962C24.2756 6.03 24.3323 6.15466 24.3323 6.336L24.1963 8.342C24.1509 9.022 23.9583 9.57733 23.6183 10.008C23.3009 10.416 22.6323 10.62 21.6123 10.62H16.9203L16.5803 15.414H21.4083C21.5443 15.414 21.6689 15.448 21.7823 15.516C21.8956 15.584 21.9523 15.7087 21.9523 15.89L21.8163 17.896C21.7709 18.576 21.5783 19.1313 21.2383 19.562C20.9209 19.97 20.2523 20.174 19.2323 20.174H16.2743Z" fill="white"/>
</svg>
